<svg xmlns="http://www.w3.org/2000/svg" width="136" height="31" viewBox="0 0 136 31" fill="none"><g clip-path="url(#clip0_10105_208)"><path d="M96.7697 20.1259C100.191 18.15 102.229 14.8916 102.229 11.4108C102.229 5.26056 96.6783 0.79834 89.0386 0.79834H74.6472V30.3982H84.3895V18.3986L92.7344 30.3982H104.135L96.613 20.2044L96.7697 20.1128V20.1259ZM91.1934 12.7979C91.1934 14.7346 89.4304 16.3049 87.2756 16.3049H84.2328V8.23101H87.2756C89.4435 8.23101 91.1934 9.8013 91.1934 11.738V12.7979Z" fill="#042D49"></path><path d="M64.8266 20.1259C68.2482 18.15 70.2854 14.8916 70.2854 11.4108C70.2854 5.26056 64.7352 0.79834 57.0955 0.79834H42.7041V30.3982H52.4464V18.3986L60.7913 30.3982H72.1921L64.6699 20.2044L64.8266 20.1128V20.1259ZM59.2503 12.7979C59.2503 14.7346 57.4873 16.3049 55.3325 16.3049H52.2897V8.23101H55.3325C57.5003 8.23101 59.2503 9.8013 59.2503 11.738V12.7979Z" fill="#042D49"></path><path d="M11.3225 30.3982L19.6935 18.5556L28.0645 30.3982H37.7023V0.79834H20.9211L0 30.3982H11.3225ZM27.5552 7.43278V16.3049H21.2867L27.5552 7.43278Z" fill="#042D49"></path><path d="M122.64 0H118.318C110.952 0 104.958 6.00633 104.958 13.3867V17.6133C104.958 24.9937 110.952 31 118.318 31H122.64C130.006 31 136 24.9937 136 17.6133V13.3867C136 6.00633 130.006 0 122.64 0ZM125.814 16.5534C125.814 19.3276 123.568 21.5914 120.786 21.5914H120.159C117.391 21.5914 115.131 19.3276 115.131 16.5534V14.4466C115.131 11.6724 117.391 9.40861 120.159 9.40861H120.786C123.555 9.40861 125.814 11.6724 125.814 14.4466V16.5534Z" fill="#042D49"></path><path d="M12.7068 0.62793H1.67163V16.1345H1.74999L12.7068 0.62793Z" fill="#368604"></path></g><defs><clipPath id="clip0_10105_208"><rect width="136" height="31" fill="white"></rect></clipPath></defs></svg>